# xmcd
#
# Track frame offsets:
# 150
# 19770
# 37180
# 54944
# 71119
# 91833
# 111816
# 131570
# 147411
# 169470
# 189004
# 206626
# 229200
# 250403
# 270286
# 289122
# 306326
# 323524
# 344999
#
# Disc length: 4796 seconds
#
#
# Revision: 0
# Processed by: cddbd v1.5.1PL2 Copyright (c) Steve Scherf et al.
# Submitted via: FreeRIP 2.942 
#
DISCID=2112ba13
DTITLE=Mariah Carey - Greatest Hits
DYEAR=1900
DGENRE=
TTITLE0=Never Too Far
TTITLE1=My All
TTITLE2=I Still Believe
TTITLE3=Without You
TTITLE4=When You Believe
TTITLE5=Sweet Hart
TTITLE6=Whenever You Cal
TTITLE7=Vision of Love
TTITLE8=Fantasy
TTITLE9=Hero
TTITLE10=Dreamlover
TTITLE11=Honey
TTITLE12=One Sweet Day
TTITLE13=I'll Be There
TTITLE14=Emotion
TTITLE15=Love Takes Time
TTITLE16=Do You Know Where You're Gionig To
TTITLE17=Heartbreaker
TTITLE18=Against All Odds
EXTD=
EXTT0=
EXTT1=
EXTT2=
EXTT3=
EXTT4=
EXTT5=
EXTT6=
EXTT7=
EXTT8=
EXTT9=
EXTT10=
EXTT11=
EXTT12=
EXTT13=
EXTT14=
EXTT15=
EXTT16=
EXTT17=
EXTT18=
PLAYORDER=
